# xmcd
#
# Track frame offsets:
#	150
#	17119
#	31108
#	44924
#	65334
#	82848
#	97195
#	112884
#	129809
#	146317
#	163264
#	180690
#	196364
#	210817
#	228331
#	244151
#	260775
#
# Disc length: 3666 seconds
#
# Revision: 5
# Processed by: cddbd v1.5.1PL0 Copyright (c) Steve Scherf et al.
# Submitted via: audiograbber 1.83.01
#
DISCID=e30e5011
DTITLE=Various Artist - RPM RC68
DYEAR=1900
DGENRE=Country
TTITLE0=Brooks and Dunn - Only In America (Single Edit)
TTITLE1=Toby Keith - I Wanna Talk About Me
TTITLE2=Reba - I'm A Survivor
TTITLE3=Tim McGraw - Angry All The Time
TTITLE4=Alan Jackson - Where I Come From
TTITLE5=Brad Paisley - Wrapped Around (Single Edit)
TTITLE6=Trick Pony - On A Night Like This (Single Edit)
TTITLE7=Collin Raye - Ain't Nobody Gonna Take That From Me
TTITLE8=Jessica Andrews - Helplessly, Hopelessly (Single Version)
TTITLE9=Trace Adkins - I'm Tryin' (Radio Edit)
TTITLE10=Lonestar - With Me
TTITLE11=Martina McBride - When God-Fearin' Women Get The Blues (Single Version
TTITLE11=)
TTITLE12=Jeffery Steele - Somethin' In The Water
TTITLE13=Dixie Chicks - Heartbreak Town
TTITLE14=Mark McGuinn - That's A Plan (Radio Edit)
TTITLE15=Travis Tritt - Love Of a Woman
TTITLE16=Kenny Rogers - Beatiful (All That You Could Be)
EXTD=ID3G: 2
EXTT0=
EXTT1=
EXTT2=
EXTT3=
EXTT4=
EXTT5=
EXTT6=
EXTT7=
EXTT8=
EXTT9=
EXTT10=
EXTT11=
EXTT12=
EXTT13=
EXTT14=
EXTT15=
EXTT16=
PLAYORDER=
